<svg xmlns="http://www.w3.org/2000/svg" viewBox="0 0 320 200" role="img" aria-hidden="true">
  <defs>
    <linearGradient id="w2" x1="0%" y1="0%" x2="100%" y2="0%">
      <stop offset="0%" style="stop-color:#fff"/>
      <stop offset="100%" style="stop-color:#e0ddd4"/>
    </linearGradient>
    <filter id="sh2">
      <feDropShadow dx="0" dy="3" stdDeviation="5" flood-opacity="0.22"/>
    </filter>
  </defs>
  <g filter="url(#sh2)">
    <ellipse cx="148" cy="102" rx="38" ry="26" fill="#faf8f5"/>
    <circle cx="192" cy="92" r="16" fill="#fff"/>
    <path d="M200 86 L214 80 L211 90 Z" fill="#c9a227"/>
    <path d="M110 68 Q60 40 25 58 Q70 78 105 88 Q150 60 200 55 Q270 30 300 48 Q310 62 285 78 Q210 95 165 102 Q120 110 110 68 Z" fill="url(#w2)"/>
    <path d="M108 125 Q65 150 30 138 Q75 120 108 112 Q140 130 175 122 Q240 145 300 168 Q312 155 288 140 Q200 115 155 108 Q115 100 108 125 Z" fill="url(#w2)" opacity="0.9"/>
  </g>
</svg>
